<?xml version="1.0" encoding="UTF-8"?>
<svg width="86px" height="42px" viewBox="0 0 86 42" version="1.1" xmlns="http://www.w3.org/2000/svg" xmlns:xlink="http://www.w3.org/1999/xlink">
    <!-- Generator: Sketch 49.2 (51160) - http://www.bohemiancoding.com/sketch -->
    <title>Logo</title>
    <desc>Created with Sketch.</desc>
    <defs>
        <polygon id="path-1" points="0.7431 7 7.0351 7 7.0351 0.1987 0.7431 0.1987 0.7431 7"></polygon>
    </defs>
    <g id="UI_1366" stroke="none" stroke-width="1" fill="none" fill-rule="evenodd">
        <g id="1---V1_01_Main_page" transform="translate(-113.000000, -19.000000)">
            <g id="Header">
                <g id="Logo" transform="translate(113.000000, 19.000000)">
                    <path d="M48.3479,7.1499 C48.3409,7.1499 48.3309,7.1509 48.3229,7.1519 C48.2319,7.1459 48.1009,7.1629 47.9289,7.2139 C46.9289,7.5089 46.8629,7.9009 46.6469,8.8349 C46.2899,10.3729 45.9319,11.9109 45.5759,13.4489 C45.1729,15.1829 44.7709,16.9179 44.3679,18.6519 C44.2759,19.0489 44.2209,19.7089 44.0899,20.2989 C43.5649,18.6289 42.9139,14.9139 42.8099,14.4689 C42.4429,12.9089 42.0759,11.3469 41.7089,9.7869 C41.5649,9.1719 41.5229,8.1969 41.2049,7.6429 C40.6889,6.7449 38.7909,7.1439 37.8929,7.1499 C37.0889,7.1549 35.8829,7.1759 35.8489,8.2179 C35.8319,8.7409 36.1729,9.4519 36.3029,9.9489 L37.3679,14.0059 C38.2139,17.2339 39.0609,20.4609 39.9079,23.6879 C40.1609,24.6539 40.3639,25.6529 40.6729,26.6029 C40.8969,27.2939 41.1219,27.4289 41.8669,27.4839 C43.1129,27.5749 44.5429,27.6149 45.7849,27.4839 C46.5489,27.4029 47.0629,27.2349 47.3429,26.5149 C48.2109,24.2819 48.5969,21.7209 49.2029,19.4049 C50.0829,16.0419 50.9629,12.6779 51.8429,9.3149 C51.9709,8.8259 52.4689,7.7469 52.0109,7.3159 C51.3649,6.7089 49.1749,7.1499 48.3479,7.1499" id="Fill-1" fill="#00A991"></path>
                    <path d="M65.5036,22.8823 L62.2176,22.8823 C61.8086,22.8823 61.3956,22.8673 60.9866,22.8823 C60.8996,22.8853 60.7486,22.9083 60.6496,22.8923 C60.3576,22.1983 60.7686,20.9443 60.6566,20.2053 C60.6196,19.9603 60.6866,19.7573 60.6606,19.6733 C60.8656,19.6773 61.1046,19.7163 61.2456,19.7163 L64.9396,19.7163 C65.5906,19.7163 66.3696,19.8393 66.9996,19.6343 C68.0636,19.2883 67.8996,18.3603 67.8996,17.4383 C67.8996,16.7853 68.1286,15.6233 67.5436,15.1513 C67.0806,14.7783 66.1576,14.9313 65.6166,14.9313 L61.8856,14.9313 C61.6096,14.9313 60.9206,15.0443 60.6406,14.9393 C60.6926,14.8063 60.6476,14.5023 60.6566,14.4603 C60.8276,13.6343 60.6776,12.6173 60.6596,11.7473 C60.6996,11.7473 60.7446,11.7483 60.7996,11.7503 C61.2566,11.7733 61.7196,11.7503 62.1766,11.7503 L65.4996,11.7503 C66.9016,11.7503 68.0896,11.8073 68.1356,10.0893 C68.1726,8.7233 68.5406,7.1113 66.8306,6.9653 C65.0446,6.8133 63.1776,6.9653 61.3866,6.9653 C59.9166,6.9653 58.1816,6.7033 56.7316,6.9653 C55.4986,7.1883 55.5096,8.0113 55.5096,9.0013 L55.5096,21.0803 L55.5096,26.0283 C55.5096,26.9683 55.6296,27.5423 56.7216,27.6673 C58.3736,27.8573 60.1606,27.6673 61.8216,27.6673 C63.4676,27.6673 65.2886,27.8893 66.9226,27.6673 C68.6246,27.4373 68.3826,25.5393 68.2476,24.1883 C68.0876,22.5883 66.7956,22.8823 65.5036,22.8823" id="Fill-3" fill="#00A991"></path>
                    <path d="M84.9914,7.0923 C82.5284,6.7783 79.8224,7.0923 77.3414,7.0923 C76.0434,7.0923 71.7444,6.3253 71.4704,8.2713 C71.3234,9.3183 71.0464,11.4183 72.3774,11.6233 C73.5364,11.8023 74.8404,11.6433 76.0284,11.6263 C76.3734,11.8703 76.1604,13.2393 76.1604,13.5123 L76.1604,17.8593 C76.1604,20.6563 76.0164,23.4963 76.1604,26.2913 C76.2004,27.0643 76.2754,27.4363 77.1824,27.5403 C78.1194,27.6493 79.8944,27.8363 80.7514,27.2783 C81.3324,26.9003 81.2954,26.4643 81.2954,25.8413 L81.2954,22.0453 L81.2954,12.9913 C81.2954,12.6943 81.4124,12.0893 81.2954,11.8083 C81.2794,11.7703 81.2884,11.7183 81.2974,11.6673 C82.2924,11.8253 83.7324,11.7623 84.6604,11.6163 C86.0574,11.3983 85.9714,10.5393 85.9714,9.3673 C85.9714,8.3403 86.2594,7.2553 84.9914,7.0923" id="Fill-5" fill="#00A991"></path>
                    <path d="M19.5368,11.023 C15.7568,10.435 12.0978,10.751 9.7038,14.132 C8.5258,15.795 7.8288,17.885 7.7458,19.922 C7.6768,21.643 8.0318,24.406 8.9548,25.882 C11.1708,29.426 16.0918,30.388 19.9158,29.647 C24.6438,28.732 27.3308,24.788 27.3828,20.14 C27.2468,15.477 24.1838,11.746 19.5368,11.023" id="Fill-7" fill="#00A991"></path>
                    <path d="M5.2873,14.2534 C3.9333,13.5084 2.0603,13.7854 0.9403,14.8434 C-0.4317,16.1374 -0.2437,18.6244 1.1263,19.8284 C2.4393,20.9824 4.5953,20.4694 5.8403,19.4674 C5.8693,19.4434 5.8903,19.4224 5.9053,19.4024 C7.3013,17.9614 7.1293,15.2674 5.2873,14.2534" id="Fill-9" fill="#00A991"></path>
                    <path d="M12.0881,7.5015 C12.0881,7.4865 12.0851,7.4745 12.0831,7.4605 C12.0841,7.4485 12.0871,7.4385 12.0861,7.4275 C11.7871,1.7815 2.3881,1.8615 2.6831,7.5335 C2.8281,10.3155 4.5721,12.2895 7.5151,12.2615 C10.3851,12.2325 12.0321,10.3415 12.0881,7.5015" id="Fill-11" fill="#00A991"></path>
                    <path d="M15.2336,7.6577 C17.0426,9.1507 19.7766,8.8627 21.4456,7.3537 C21.4746,7.3277 21.4966,7.3037 21.5136,7.2787 C23.1956,5.5217 23.3576,2.8557 21.3656,1.1567 C19.4626,-0.4663 16.8646,-0.3813 15.0546,1.4117 C13.2126,3.2377 13.2246,6.0007 15.2336,7.6577" id="Fill-13" fill="#00A991"></path>
                    <path d="M26.6936,5.8238 C24.9536,5.8238 23.5356,7.1778 23.5136,8.9758 C23.4936,10.7378 24.9326,12.0548 26.6826,11.9628 C28.5486,11.8638 29.8766,10.7658 29.8806,8.8458 C29.8826,7.9268 29.3006,7.0278 28.5216,6.4678 C27.9146,6.0318 27.1516,5.8238 26.6936,5.8238" id="Fill-15" fill="#00A991"></path>
                    <path d="M51.676,40.1206 C51.358,40.1206 51.061,40.0616 50.794,39.9446 C50.527,39.8276 50.291,39.6646 50.095,39.4596 C49.899,39.2556 49.744,39.0126 49.635,38.7346 C49.527,38.4596 49.471,38.1526 49.471,37.8246 C49.471,37.4966 49.527,37.1876 49.635,36.9066 C49.744,36.6266 49.899,36.3786 50.096,36.1696 C50.292,35.9606 50.529,35.7956 50.8,35.6786 C51.072,35.5616 51.371,35.5026 51.689,35.5026 C51.999,35.5026 52.293,35.5616 52.565,35.6786 C52.836,35.7956 53.071,35.9586 53.262,36.1626 C53.455,36.3676 53.61,36.6156 53.723,36.9006 C53.837,37.1856 53.894,37.4976 53.894,37.8246 C53.894,38.1426 53.837,38.4476 53.723,38.7276 C53.61,39.0096 53.453,39.2556 53.257,39.4606 C53.06,39.6646 52.825,39.8276 52.557,39.9446 C52.29,40.0616 51.994,40.1206 51.676,40.1206 M54.088,35.3996 C53.781,35.0936 53.417,34.8506 53.005,34.6786 C52.593,34.5056 52.15,34.4176 51.689,34.4176 C51.211,34.4176 50.759,34.5056 50.346,34.6786 C49.934,34.8506 49.57,35.0946 49.264,35.3996 C48.958,35.7056 48.716,36.0676 48.543,36.4756 C48.369,36.8836 48.281,37.3326 48.281,37.8106 C48.281,38.2906 48.372,38.7396 48.549,39.1476 C48.727,39.5566 48.972,39.9166 49.278,40.2176 C49.584,40.5186 49.945,40.7616 50.352,40.9376 C50.761,41.1156 51.206,41.2056 51.676,41.2056 C52.146,41.2056 52.593,41.1186 53.005,40.9446 C53.417,40.7716 53.781,40.5296 54.088,40.2236 C54.393,39.9186 54.638,39.5546 54.816,39.1416 C54.993,38.7286 55.083,38.2816 55.083,37.8106 C55.083,37.3326 54.993,36.8836 54.816,36.4746 C54.638,36.0666 54.393,35.7046 54.088,35.3996" id="Fill-17" fill="#00A991"></path>
                    <path d="M61.7375,35.1411 C61.5265,34.9121 61.2675,34.7321 60.9665,34.6061 C60.6655,34.4811 60.3195,34.4171 59.9375,34.4171 C59.5095,34.4171 59.1215,34.4961 58.7815,34.6531 C58.5065,34.7801 58.2645,34.9451 58.0585,35.1451 L58.0585,35.1101 C58.0585,34.8071 57.8125,34.5611 57.5095,34.5611 C57.2065,34.5611 56.9605,34.8071 56.9605,35.1101 L56.9605,40.4941 C56.9605,40.8141 57.2215,41.0761 57.5425,41.0761 C57.8625,41.0761 58.1235,40.8141 58.1235,40.4941 L58.1235,37.1201 C58.1235,36.8861 58.1635,36.6681 58.2425,36.4701 C58.3205,36.2731 58.4305,36.0991 58.5715,35.9541 C58.7105,35.8111 58.8795,35.6991 59.0725,35.6201 C59.2675,35.5421 59.4835,35.5021 59.7155,35.5021 C60.1915,35.5021 60.5525,35.6481 60.8175,35.9461 C61.0815,36.2431 61.2155,36.6371 61.2155,37.1201 L61.2155,40.4941 C61.2155,40.8141 61.4765,41.0761 61.7975,41.0761 C62.1175,41.0761 62.3785,40.8141 62.3785,40.4941 L62.3785,37.0021 C62.3785,36.6291 62.3245,36.2811 62.2175,35.9651 C62.1105,35.6481 61.9485,35.3701 61.7375,35.1411" id="Fill-19" fill="#00A991"></path>
                    <path d="M65.1901,31.7622 C64.8691,31.7622 64.6081,32.0232 64.6081,32.3442 L64.6081,40.4932 C64.6081,40.8142 64.8691,41.0752 65.1901,41.0752 C65.5111,41.0752 65.7721,40.8142 65.7721,40.4932 L65.7721,32.3442 C65.7721,32.0232 65.5111,31.7622 65.1901,31.7622" id="Fill-21" fill="#00A991"></path>
                    <path d="M68.6618,34.5611 C68.3408,34.5611 68.0798,34.8221 68.0798,35.1431 L68.0798,40.4941 C68.0798,40.8141 68.3408,41.0761 68.6618,41.0761 C68.9828,41.0761 69.2438,40.8141 69.2438,40.4941 L69.2438,35.1431 C69.2438,34.8221 68.9828,34.5611 68.6618,34.5611" id="Fill-23" fill="#00A991"></path>
                    <path d="M76.3288,35.1411 C76.1178,34.9121 75.8588,34.7321 75.5578,34.6061 C75.2568,34.4811 74.9108,34.4171 74.5278,34.4171 C74.1008,34.4171 73.7128,34.4961 73.3728,34.6531 C73.0978,34.7801 72.8558,34.9451 72.6498,35.1451 L72.6498,35.1031 C72.6498,34.8041 72.4068,34.5611 72.0938,34.5611 C71.7948,34.5611 71.5518,34.8041 71.5518,35.1031 L71.5528,40.4951 C71.5528,40.8151 71.8138,41.0761 72.1338,41.0761 C72.4538,41.0761 72.7148,40.8151 72.7148,40.4951 L72.7148,37.1201 C72.7148,36.8861 72.7548,36.6681 72.8338,36.4701 C72.9118,36.2731 73.0218,36.0991 73.1628,35.9541 C73.3018,35.8111 73.4708,35.6991 73.6638,35.6201 C73.8588,35.5421 74.0748,35.5021 74.3068,35.5021 C74.7828,35.5021 75.1438,35.6481 75.4088,35.9461 C75.6728,36.2431 75.8068,36.6371 75.8068,37.1201 L75.8068,40.4721 C75.8068,40.7371 75.9688,40.9721 76.2008,41.0451 C76.3868,41.1051 76.5788,41.0751 76.7308,40.9631 C76.8808,40.8541 76.9698,40.6781 76.9698,40.4941 L76.9698,37.0021 C76.9698,36.6291 76.9158,36.2811 76.8088,35.9651 C76.7018,35.6481 76.5398,35.3701 76.3288,35.1411" id="Fill-25" fill="#00A991"></path>
                    <g id="Group-29" transform="translate(78.000000, 34.219000)">
                        <mask id="mask-2" fill="white">
                            <use xlink:href="#path-1"></use>
                        </mask>
                        <g id="Clip-28"></g>
                        <path d="M2.0031,2.9387 C2.0551,2.7137 2.1351,2.5037 2.2421,2.3127 C2.3631,2.0957 2.5151,1.9087 2.6941,1.7537 C2.8731,1.5997 3.0801,1.4797 3.3091,1.3957 C3.7541,1.2347 4.2891,1.2287 4.7371,1.3827 C4.9521,1.4587 5.1431,1.5707 5.3031,1.7187 C5.4641,1.8687 5.5971,2.0527 5.6971,2.2687 C5.7861,2.4627 5.8361,2.6887 5.8451,2.9387 L2.0031,2.9387 Z M6.8071,1.9507 C6.6561,1.5897 6.4431,1.2757 6.1761,1.0167 C5.9091,0.7587 5.5901,0.5547 5.2301,0.4137 C4.8701,0.2707 4.4801,0.1987 4.0721,0.1987 C3.6021,0.1987 3.1601,0.2887 2.7601,0.4657 C2.3611,0.6437 2.0061,0.8887 1.7051,1.1947 C1.4031,1.5007 1.1651,1.8647 0.9971,2.2767 C0.8281,2.6887 0.7431,3.1357 0.7431,3.6057 C0.7431,4.0847 0.8311,4.5337 1.0031,4.9417 C1.1761,5.3497 1.4191,5.7107 1.7251,6.0177 C2.0311,6.3237 2.3981,6.5667 2.8151,6.7397 C3.2311,6.9127 3.6891,7.0007 4.1761,7.0007 C4.7071,7.0007 5.1991,6.8967 5.6381,6.6927 C5.9291,6.5577 6.1981,6.3877 6.4381,6.1897 C6.5461,6.0997 6.6131,5.9707 6.6251,5.8287 C6.6361,5.6837 6.5891,5.5377 6.4941,5.4277 C6.3091,5.2127 5.9851,5.1837 5.7571,5.3597 C5.5941,5.4867 5.4191,5.5967 5.2371,5.6887 C4.9361,5.8377 4.5841,5.9157 4.1891,5.9157 C3.8861,5.9157 3.6001,5.8687 3.3411,5.7757 C3.0821,5.6837 2.8521,5.5487 2.6561,5.3747 C2.4601,5.1987 2.2991,4.9847 2.1791,4.7387 C2.0681,4.5147 1.9941,4.2617 1.9561,3.9847 L6.8781,3.9847 C6.9131,3.9847 6.9441,3.9607 6.9541,3.9277 C6.9721,3.8627 6.9901,3.7627 7.0081,3.6227 C7.0261,3.4827 7.0351,3.3237 7.0351,3.1487 C7.0351,2.7137 6.9591,2.3107 6.8071,1.9507 Z" id="Fill-27" fill="#00A991" mask="url(#mask-2)"></path>
                    </g>
                </g>
            </g>
        </g>
    </g>
</svg>